<svg width="318" height="83" viewBox="0 0 318 83" fill="none" xmlns="http://www.w3.org/2000/svg">
<g filter="url(#filter0_d_4_8)">
<path d="M4 64V0H16.8157L39.6167 43.52H32.855L55.027 0H67.8428L68 64H53.6904L67.8428 0L55.9705 25.3257L39.3808 57.6914H32.4619L15.4005 25.3257L4 0L18.3882 64H4Z" fill="url(#paint0_linear_4_8)"/>
<path d="M90.064 74.864C88.4 74.864 86.736 74.5867 85.072 74.032C83.408 73.4773 82.0213 72.7093 80.912 71.728L84.112 65.84C84.9227 66.5653 85.84 67.1413 86.864 67.568C87.888 67.9947 88.9333 68.208 90 68.208C91.4507 68.208 92.624 67.8453 93.52 67.12C94.416 66.3947 95.248 65.1787 96.016 63.472L98 58.992L98.64 58.032L111.568 27.824H119.248L103.248 64.752C102.181 67.312 100.987 69.3387 99.664 70.832C98.384 72.3253 96.9333 73.3707 95.312 73.968C93.7333 74.5653 91.984 74.864 90.064 74.864ZM97.104 63.216L81.68 27.824H90L102.544 57.328L97.104 63.216ZM150.32 37.808H172.656V44.848H150.32V37.808ZM151.024 62H142.704V17.2H175.408V24.176H151.024V62ZM182.686 62V27.824H190.686V62H182.686ZM186.718 22.192C185.224 22.192 183.987 21.7227 183.006 20.784C182.067 19.8453 181.598 18.7147 181.598 17.392C181.598 16.0267 182.067 14.896 183.006 14C183.987 13.0613 185.224 12.592 186.718 12.592C188.211 12.592 189.427 13.04 190.366 13.936C191.347 14.7893 191.838 15.8773 191.838 17.2C191.838 18.608 191.368 19.8027 190.43 20.784C189.491 21.7227 188.254 22.192 186.718 22.192ZM201.186 62V14.512H209.186V62H201.186ZM262.822 27.44C265.552 27.44 267.963 27.9733 270.054 29.04C272.187 30.1067 273.851 31.7493 275.046 33.968C276.24 36.144 276.838 38.96 276.838 42.416V62H268.838V43.44C268.838 40.4107 268.176 38.1493 266.854 36.656C265.531 35.1627 263.632 34.416 261.158 34.416C259.408 34.416 257.851 34.8 256.486 35.568C255.163 36.336 254.118 37.4667 253.35 38.96C252.624 40.4533 252.262 42.352 252.262 44.656V62H244.262V43.44C244.262 40.4107 243.6 38.1493 242.278 36.656C240.955 35.1627 239.056 34.416 236.582 34.416C234.832 34.416 233.275 34.8 231.91 35.568C230.587 36.336 229.542 37.4667 228.774 38.96C228.048 40.4533 227.686 42.352 227.686 44.656V62H219.686V27.824H227.302V36.912L225.958 34.224C227.11 32.0053 228.774 30.32 230.95 29.168C233.168 28.016 235.686 27.44 238.502 27.44C241.702 27.44 244.475 28.2293 246.822 29.808C249.211 31.3867 250.79 33.776 251.558 36.976L248.422 35.888C249.531 33.328 251.366 31.28 253.926 29.744C256.486 28.208 259.451 27.44 262.822 27.44ZM297.621 62.448C294.762 62.448 292.01 62.0853 289.365 61.36C286.762 60.592 284.693 59.6747 283.157 58.608L286.229 52.528C287.765 53.5093 289.599 54.32 291.733 54.96C293.866 55.6 295.999 55.92 298.133 55.92C300.65 55.92 302.463 55.5787 303.573 54.896C304.725 54.2133 305.301 53.296 305.301 52.144C305.301 51.2053 304.917 50.5013 304.149 50.032C303.381 49.52 302.378 49.136 301.141 48.88C299.903 48.624 298.517 48.3893 296.981 48.176C295.487 47.9627 293.973 47.6853 292.437 47.344C290.943 46.96 289.578 46.4267 288.341 45.744C287.103 45.0187 286.101 44.0587 285.333 42.864C284.565 41.6693 284.181 40.0907 284.181 38.128C284.181 35.952 284.799 34.0747 286.036 32.496C287.274 30.8747 289.002 29.6373 291.22 28.784C293.482 27.888 296.149 27.44 299.221 27.44C301.525 27.44 303.85 27.696 306.197 28.208C308.543 28.72 310.485 29.4453 312.021 30.384L308.949 36.464C307.327 35.4827 305.685 34.8213 304.021 34.48C302.399 34.096 300.778 33.904 299.157 33.904C296.725 33.904 294.911 34.2667 293.717 34.992C292.565 35.7173 291.989 36.6347 291.989 37.744C291.989 38.768 292.373 39.536 293.141 40.048C293.909 40.56 294.911 40.9653 296.149 41.264C297.386 41.5627 298.751 41.8187 300.245 42.032C301.781 42.2027 303.295 42.48 304.789 42.864C306.282 43.248 307.647 43.7813 308.885 44.464C310.165 45.104 311.189 46.0213 311.957 47.216C312.725 48.4107 313.109 49.968 313.109 51.888C313.109 54.0213 312.469 55.8773 311.189 57.456C309.951 59.0347 308.181 60.272 305.877 61.168C303.573 62.0213 300.821 62.448 297.621 62.448Z" fill="url(#paint1_linear_4_8)"/>
</g>
<defs>
<filter id="filter0_d_4_8" x="0" y="0" width="319" height="86" filterUnits="userSpaceOnUse" color-interpolation-filters="sRGB">
<feFlood flood-opacity="0" result="BackgroundImageFix"/>
<feColorMatrix in="SourceAlpha" type="matrix" values="0 0 0 0 0 0 0 0 0 0 0 0 0 0 0 0 0 0 127 0" result="hardAlpha"/>
<feOffset dy="4"/>
<feGaussianBlur stdDeviation="2"/>
<feComposite in2="hardAlpha" operator="out"/>
<feColorMatrix type="matrix" values="0 0 0 0 0 0 0 0 0 0 0 0 0 0 0 0 0 0 0.25 0"/>
<feBlend mode="normal" in2="BackgroundImageFix" result="effect1_dropShadow_4_8"/>
<feBlend mode="normal" in="SourceGraphic" in2="effect1_dropShadow_4_8" result="shape"/>
</filter>
<linearGradient id="paint0_linear_4_8" x1="36" y1="0" x2="36" y2="64" gradientUnits="userSpaceOnUse">
<stop stop-color="#F92B75"/>
<stop offset="0.165" stop-color="#BA2895"/>
<stop offset="0.34" stop-color="#7B26B6"/>
<stop offset="0.64" stop-color="#3D24D7"/>
</linearGradient>
<linearGradient id="paint1_linear_4_8" x1="315" y1="37.7883" x2="82" y2="40.2117" gradientUnits="userSpaceOnUse">
<stop stop-color="white"/>
<stop offset="0.0001" stop-color="#F92B75"/>
<stop offset="0.33" stop-color="#BA2895"/>
<stop offset="0.57" stop-color="#7B26B6"/>
<stop offset="1" stop-color="#3D24D7"/>
</linearGradient>
</defs>
</svg>
